<svg width="37" height="29" viewBox="0 0 37 29" fill="none" xmlns="http://www.w3.org/2000/svg">
<path fill-rule="evenodd" clip-rule="evenodd" d="M4.04691 0.625C2.97361 0.625 1.94428 1.05137 1.18534 1.8103C0.426403 2.56924 3.68509e-05 3.59858 3.68509e-05 4.67188L3.68509e-05 6.37388C-0.000337804 6.39469 -0.000337804 6.4155 3.68509e-05 6.43631L3.68509e-05 24.3281C3.68509e-05 26.562 1.81304 28.375 4.04691 28.375H32.9532C34.0265 28.375 35.0558 27.9486 35.8147 27.1897C36.5737 26.4308 37 25.4014 37 24.3281V4.67188C37 3.59858 36.5737 2.56924 35.8147 1.8103C35.0558 1.05137 34.0265 0.625 32.9532 0.625H4.04691ZM33.5313 5.41188V4.67188C33.5313 4.51855 33.4704 4.3715 33.362 4.26308C33.2535 4.15466 33.1065 4.09375 32.9532 4.09375H4.04691C3.89358 4.09375 3.74654 4.15466 3.63812 4.26308C3.5297 4.3715 3.46879 4.51855 3.46879 4.67188V5.41188L18.5 14.2225L33.5313 5.41188ZM3.46879 9.43563V24.3304C3.46879 24.6496 3.72779 24.9086 4.04691 24.9086H32.9532C33.1065 24.9086 33.2535 24.8477 33.362 24.7392C33.4704 24.6308 33.5313 24.4838 33.5313 24.3304V9.43331L19.3788 17.7306C19.1124 17.8871 18.809 17.9697 18.5 17.9697C18.1911 17.9697 17.8877 17.8871 17.6213 17.7306L3.46879 9.43331V9.43563Z" fill="#55B3C5"/>
</svg>
